<svg xmlns="http://www.w3.org/2000/svg" xmlns:xlink="http://www.w3.org/1999/xlink" width="1980" zoomAndPan="magnify" viewBox="0 0 1485 1484.999939" height="1980" preserveAspectRatio="xMidYMid meet" version="1.2"><defs><clipPath id="8e6673c844"><path d="M 629.976562 629.988281 L 854.996094 629.988281 L 854.996094 855.011719 L 629.976562 855.011719 Z M 629.976562 629.988281 "/></clipPath><clipPath id="523463f35e"><path d="M 742.484375 629.988281 C 680.347656 629.988281 629.976562 680.363281 629.976562 742.5 C 629.976562 804.636719 680.347656 855.011719 742.484375 855.011719 C 804.625 855.011719 854.996094 804.636719 854.996094 742.5 C 854.996094 680.363281 804.625 629.988281 742.484375 629.988281 Z M 742.484375 629.988281 "/></clipPath><clipPath id="e3011b593c"><path d="M 1005.5625 629.988281 L 1230.582031 629.988281 L 1230.582031 855.011719 L 1005.5625 855.011719 Z M 1005.5625 629.988281 "/></clipPath><clipPath id="240b974266"><path d="M 1118.074219 629.988281 C 1055.933594 629.988281 1005.5625 680.363281 1005.5625 742.5 C 1005.5625 804.636719 1055.933594 855.011719 1118.074219 855.011719 C 1180.210938 855.011719 1230.582031 804.636719 1230.582031 742.5 C 1230.582031 680.363281 1180.210938 629.988281 1118.074219 629.988281 Z M 1118.074219 629.988281 "/></clipPath><clipPath id="46bf2de6d1"><path d="M 254.0625 629.988281 L 479.082031 629.988281 L 479.082031 855.011719 L 254.0625 855.011719 Z M 254.0625 629.988281 "/></clipPath><clipPath id="91eebce77f"><path d="M 366.570312 629.988281 C 304.433594 629.988281 254.0625 680.363281 254.0625 742.5 C 254.0625 804.636719 304.433594 855.011719 366.570312 855.011719 C 428.710938 855.011719 479.082031 804.636719 479.082031 742.5 C 479.082031 680.363281 428.710938 629.988281 366.570312 629.988281 Z M 366.570312 629.988281 "/></clipPath></defs><g id="765cd8acd9"><g clip-rule="nonzero" clip-path="url(#8e6673c844)"><g clip-rule="nonzero" clip-path="url(#523463f35e)"><path style=" stroke:none;fill-rule:nonzero;fill:#9d27b0;fill-opacity:1;" d="M 629.976562 629.988281 L 854.996094 629.988281 L 854.996094 855.011719 L 629.976562 855.011719 Z M 629.976562 629.988281 "/></g></g><g clip-rule="nonzero" clip-path="url(#e3011b593c)"><g clip-rule="nonzero" clip-path="url(#240b974266)"><path style=" stroke:none;fill-rule:nonzero;fill:#d33131;fill-opacity:1;" d="M 1005.5625 629.988281 L 1230.582031 629.988281 L 1230.582031 855.011719 L 1005.5625 855.011719 Z M 1005.5625 629.988281 "/></g></g><g clip-rule="nonzero" clip-path="url(#46bf2de6d1)"><g clip-rule="nonzero" clip-path="url(#91eebce77f)"><path style=" stroke:none;fill-rule:nonzero;fill:#040404;fill-opacity:1;" d="M 254.0625 629.988281 L 479.082031 629.988281 L 479.082031 855.011719 L 254.0625 855.011719 Z M 254.0625 629.988281 "/></g></g></g></svg>