<svg xmlns="http://www.w3.org/2000/svg" xmlns:xlink="http://www.w3.org/1999/xlink" width="1980" zoomAndPan="magnify" viewBox="0 0 1485 1484.999939" height="1980" preserveAspectRatio="xMidYMid meet" version="1.2"><defs><clipPath id="33aa5004c2"><path d="M 588.125 587.902344 L 897.324219 587.902344 L 897.324219 897.097656 L 588.125 897.097656 Z M 588.125 587.902344 "/></clipPath><clipPath id="64d461e79c"><path d="M 742.722656 587.902344 C 657.34375 587.902344 588.125 657.117188 588.125 742.5 C 588.125 827.882812 657.34375 897.097656 742.722656 897.097656 C 828.105469 897.097656 897.324219 827.882812 897.324219 742.5 C 897.324219 657.117188 828.105469 587.902344 742.722656 587.902344 Z M 742.722656 587.902344 "/></clipPath><clipPath id="86f6593ac6"><path d="M 1104.214844 587.902344 L 1413.410156 587.902344 L 1413.410156 897.097656 L 1104.214844 897.097656 Z M 1104.214844 587.902344 "/></clipPath><clipPath id="b612bbdd80"><path d="M 1258.8125 587.902344 C 1173.429688 587.902344 1104.214844 657.117188 1104.214844 742.5 C 1104.214844 827.882812 1173.429688 897.097656 1258.8125 897.097656 C 1344.195312 897.097656 1413.410156 827.882812 1413.410156 742.5 C 1413.410156 657.117188 1344.195312 587.902344 1258.8125 587.902344 Z M 1258.8125 587.902344 "/></clipPath><clipPath id="e377edfcc8"><path d="M 71.589844 587.902344 L 380.785156 587.902344 L 380.785156 897.097656 L 71.589844 897.097656 Z M 71.589844 587.902344 "/></clipPath><clipPath id="7de64ff2b8"><path d="M 226.1875 587.902344 C 140.804688 587.902344 71.589844 657.117188 71.589844 742.5 C 71.589844 827.882812 140.804688 897.097656 226.1875 897.097656 C 311.570312 897.097656 380.785156 827.882812 380.785156 742.5 C 380.785156 657.117188 311.570312 587.902344 226.1875 587.902344 Z M 226.1875 587.902344 "/></clipPath></defs><g id="cbe6b149cb"><g clip-rule="nonzero" clip-path="url(#33aa5004c2)"><g clip-rule="nonzero" clip-path="url(#64d461e79c)"><path style=" stroke:none;fill-rule:nonzero;fill:#9d27b0;fill-opacity:1;" d="M 588.125 587.902344 L 897.324219 587.902344 L 897.324219 897.097656 L 588.125 897.097656 Z M 588.125 587.902344 "/></g></g><g clip-rule="nonzero" clip-path="url(#86f6593ac6)"><g clip-rule="nonzero" clip-path="url(#b612bbdd80)"><path style=" stroke:none;fill-rule:nonzero;fill:#d33131;fill-opacity:1;" d="M 1104.214844 587.902344 L 1413.410156 587.902344 L 1413.410156 897.097656 L 1104.214844 897.097656 Z M 1104.214844 587.902344 "/></g></g><g clip-rule="nonzero" clip-path="url(#e377edfcc8)"><g clip-rule="nonzero" clip-path="url(#7de64ff2b8)"><path style=" stroke:none;fill-rule:nonzero;fill:#040404;fill-opacity:1;" d="M 71.589844 587.902344 L 380.785156 587.902344 L 380.785156 897.097656 L 71.589844 897.097656 Z M 71.589844 587.902344 "/></g></g></g></svg>